{"accessors":[{"bufferView":0,"componentType":5121,"count":288,"max":[99],"min":[0],"type":"SCALAR"},{"bufferView":1,"componentType":5126,"count":100,"max":[0.09641996771097183,0.0,0.09641996771097183],"min":[-0.09641996771097183,0.0,-0.09641996771097183],"type":"VEC3"},{"bufferView":2,"componentType":5126,"count":100,"max":[0.0,1.0,-0.0],"min":[0.0,-1.0,-0.0],"type":"VEC3"},{"bufferView":3,"componentType":5126,"count":100,"max":[1.0,1.0],"min":[0.0,0.0],"type":"VEC2"},{"bufferView":4,"componentType":5121,"count":18,"max":[11],"min":[0],"type":"SCALAR"},{"bufferView":5,"componentType":5126,"count":12,"max":[0.5,0.5,0.25],"min":[-0.5,0.0,-0.25],"type":"VEC3"},{"bufferView":6,"componentType":5126,"count":12,"max":[0.0,0.4472140073776245,0.8944270014762878],"min":[0.0,-1.0,-0.8944270014762878],"type":"VEC3"},{"bufferView":7,"componentType":5126,"count":12,"max":[0.625,0.75],"min":[0.125,0.0],"type":"VEC2"},{"bufferView":8,"componentType":5121,"count":6,"max":[5],"min":[0],"type":"SCALAR"},{"bufferView":9,"componentType":5126,"count":6,"max":[0.5,0.5,0.25],"min":[-0.5,0.0,-0.25],"type":"VEC3"},{"bufferView":10,"componentType":5126,"count":6,"max":[1.0,0.0,-0.0],"min":[-1.0,0.0,-0.0],"type":"VEC3"},{"bufferView":11,"componentType":5126,"count":6,"max":[0.625,1.0],"min":[0.375,0.25],"type":"VEC2"},{"bufferView":12,"componentType":5121,"count":6,"max":[3],"min":[0],"type":"SCALAR"},{"bufferView":13,"componentType":5126,"count":4,"max":[1.0,0.0,1.0],"min":[-1.0,0.0,-1.0],"type":"VEC3"},{"bufferView":14,"componentType":5126,"count":4,"max":[0.0,1.0,-0.0],"min":[0.0,1.0,-0.0],"type":"VEC3"},{"bufferView":15,"componentType":5126,"count":4,"max":[1.0,1.0],"min":[0.0,0.0],"type":"VEC2"},{"bufferView":16,"componentType":5121,"count":6,"max":[3],"min":[0],"type":"SCALAR"},{"bufferView":17,"componentType":5126,"count":4,"max":[0.10496654361486435,0.0,0.10496654361486435],"min":[-0.10496654361486435,0.0,-0.10496654361486435],"type":"VEC3"},{"bufferView":18,"componentType":5126,"count":4,"max":[0.0,1.0,-0.0],"min":[0.0,1.0,-0.0],"type":"VEC3"},{"bufferView":19,"componentType":5126,"count":4,"max":[1.0,1.0],"min":[0.0,0.0],"type":"VEC2"},{"bufferView":20,"componentType":5121,"count":648,"max":[155],"min":[0],"type":"SCALAR"},{"bufferView":21,"componentType":5126,"count":156,"max":[0.5049999952316284,0.5038256645202637,0.254597932100296],"min":[-0.5049999952316284,-0.004999995231628418,-0.2549910247325897],"type":"VEC3"},{"bufferView":22,"componentType":5126,"count":156,"max":[1.0,1.0,0.9927123785018921],"min":[-1.0,-1.0,-0.9927422404289246],"type":"VEC3"},{"bufferView":23,"componentType":5126,"count":156,"max":[1.0,1.0],"min":[0.0,0.0],"type":"VEC2"}],"asset":{"generator":"Verge3D for Blender v4.7.1","version":"2.0"},"bufferViews":[{"buffer":0,"byteLength":288,"byteOffset":0,"target":34963},{"buffer":0,"byteLength":1200,"byteOffset":288,"target":34962},{"buffer":0,"byteLength":1200,"byteOffset":1488,"target":34962},{"buffer":0,"byteLength":800,"byteOffset":2688,"target":34962},{"buffer":0,"byteLength":18,"byteOffset":3488,"target":34963},{"buffer":0,"byteLength":144,"byteOffset":3508,"target":34962},{"buffer":0,"byteLength":144,"byteOffset":3652,"target":34962},{"buffer":0,"byteLength":96,"byteOffset":3796,"target":34962},{"buffer":0,"byteLength":6,"byteOffset":3892,"target":34963},{"buffer":0,"byteLength":72,"byteOffset":3900,"target":34962},{"buffer":0,"byteLength":72,"byteOffset":3972,"target":34962},{"buffer":0,"byteLength":48,"byteOffset":4044,"target":34962},{"buffer":0,"byteLength":6,"byteOffset":4092,"target":34963},{"buffer":0,"byteLength":48,"byteOffset":4100,"target":34962},{"buffer":0,"byteLength":48,"byteOffset":4148,"target":34962},{"buffer":0,"byteLength":32,"byteOffset":4196,"target":34962},{"buffer":0,"byteLength":6,"byteOffset":4228,"target":34963},{"buffer":0,"byteLength":48,"byteOffset":4236,"target":34962},{"buffer":0,"byteLength":48,"byteOffset":4284,"target":34962},{"buffer":0,"byteLength":32,"byteOffset":4332,"target":34962},{"buffer":0,"byteLength":648,"byteOffset":4364,"target":34963},{"buffer":0,"byteLength":1872,"byteOffset":5012,"target":34962},{"buffer":0,"byteLength":1872,"byteOffset":6884,"target":34962},{"buffer":0,"byteLength":1248,"byteOffset":8756,"target":34962}],"buffers":[{"byteLength":10004,"uri":"Kay Rian.bin"}],"cameras":[{"extensions":{"S8S_v3d_camera":{"controls":"ORBIT","enablePan":false,"moveSpeed":1.0,"orbitMaxDistance":7.0,"orbitMaxPolarAngle":1.4311699867248535,"orbitMaxZoom":100.0,"orbitMinDistance":1.0,"orbitMinPolarAngle":0.0,"orbitMinZoom":0.009999999776482582,"orbitTarget":[0.0,0.0,-0.0],"rotateSpeed":0.5,"viewportFitInitialAspect":1.7777777777777777,"viewportFitType":"AUTO"}},"name":"Camera.001","perspective":{"aspectRatio":1.7777777777777777,"yfov":0.5033799372418416,"zfar":100.0,"znear":0.30000001192092896},"type":"perspective"}],"extensions":{"S8S_v3d_lights":{"lights":[{"color":[1.0,1.0,1.0],"decay":2,"distance":10.00000011175871,"intensity":100.0,"name":"Lamp","power":100.0,"profile":"blender","shadow":{"bias":-0.0018,"cameraFar":10.00000011175871,"cameraFov":0,"cameraNear":0.05000000074505806,"enabled":true,"expBias":2.5,"mapSize":512,"radius":1.0,"slopeScaledBias":2.5},"type":"point"}]}},"extensionsUsed":["S8S_v3d_texture","S8S_v3d_materials","S8S_v3d_camera","S8S_v3d_lights","S8S_v3d_mesh","S8S_v3d_node","S8S_v3d_scene"],"images":[{"uri":"environment.hdr"}],"materials":[{"alphaMode":"OPAQUE","extensions":{"S8S_v3d_materials":{"gtaoVisible":true,"materialIndex":0,"nodeGraph":{"edges":[{"fromNode":1,"fromOutput":0,"toInput":0,"toNode":0}],"nodes":[{"inputs":[[0,0,0,0],[0,0,0,0],[0.0,0.0,0.0],0.0],"is_active_output":true,"name":"Material Output","outputs":[],"type":"OUTPUT_MATERIAL_BL"},{"inputs":[[0.0,0.0,0.0,1.0],0.0,1.0,1.4500000476837158,1.0,[0.0,0.0,0.0],0.0,[1.0,1.0,1.0],0.05000000074505806,1.399999976158142,0.0,0.5,[1.0,1.0,1.0,1.0],0.0,0.0,[0.0,0.0,0.0],0.0,0.0,0.029999999329447746,1.5,[1.0,1.0,1.0,1.0],[0.0,0.0,0.0],0.0,0.5,[1.0,1.0,1.0,1.0],[0.0,0.0,0.0,1.0],1.0,0.0,1.3300000429153442],"is_active_output":false,"name":"Principled BSDF","outputs":[[0,0,0,0]],"type":"BSDF_PRINCIPLED_BL"}]}}},"name":"Highlight"},{"alphaMode":"BLEND","extensions":{"S8S_v3d_materials":{"gtaoVisible":true,"materialIndex":0,"nodeGraph":{"edges":[{"fromNode":3,"fromOutput":0,"toInput":0,"toNode":0},{"fromNode":1,"fromOutput":0,"toInput":1,"toNode":3},{"fromNode":2,"fromOutput":0,"toInput":2,"toNode":3},{"fromNode":3,"fromOutput":0,"toInput":1,"toNode":5},{"fromNode":5,"fromOutput":0,"toInput":0,"toNode":4},{"fromNode":6,"fromOutput":1,"toInput":0,"toNode":5},{"fromNode":7,"fromOutput":0,"toInput":2,"toNode":5}],"nodes":[{"inputs":[[0,0,0,0],[0,0,0,0],[0.0,0.0,0.0],0.0],"is_active_output":true,"name":"Material Output","outputs":[],"type":"OUTPUT_MATERIAL_BL"},{"inputs":[[1.0,1.0,1.0,1.0],2.5],"is_active_output":false,"name":"Emission","outputs":[[0,0,0,0]],"type":"EMISSION_BL"},{"inputs":[[1.0,1.0,1.0,1.0]],"is_active_output":false,"name":"Transparent BSDF","outputs":[[0,0,0,0]],"type":"BSDF_TRANSPARENT_BL"},{"inputs":[0.800000011920929,[0,0,0,0],[0,0,0,0]],"is_active_output":false,"name":"Mix Shader","outputs":[[0,0,0,0]],"type":"MIX_SHADER_BL"},{"inputs":[[0,0,0,0],[0,0,0,0],[0.0,0.0,0.0],0.0],"is_active_output":false,"name":"Material Output.001","outputs":[],"type":"OUTPUT_MATERIAL_BL"},{"inputs":[0.5,[0,0,0,0],[0,0,0,0]],"is_active_output":false,"name":"Mix Shader.001","outputs":[[0,0,0,0]],"type":"MIX_SHADER_BL"},{"inputs":[],"is_active_output":false,"name":"Light Path","outputs":[0.0,0.0,0.0,0.0,0.0,0.0,0.0,0.0,0.0,0.0,0.0,0.0,0.0],"type":"LIGHT_PATH_BL"},{"inputs":[[1.0,1.0,1.0,1.0]],"is_active_output":false,"name":"Transparent BSDF.001","outputs":[[0,0,0,0]],"type":"BSDF_TRANSPARENT_BL"}]}}},"name":"indicator"},{"alphaMode":"OPAQUE","extensions":{"S8S_v3d_materials":{"gtaoVisible":true,"materialIndex":0,"nodeGraph":{"edges":[{"fromNode":0,"fromOutput":0,"toInput":0,"toNode":1}],"nodes":[{"inputs":[[0.007181869819760323,0.8001416921615601,0.0,1.0],0.0,0.5,1.5,1.0,[0.0,0.0,0.0],0.0,[1.0,0.20000000298023224,0.10000000149011612],0.05000000074505806,1.399999976158142,0.0,0.5,[1.0,1.0,1.0,1.0],0.0,0.0,[0.0,0.0,0.0],0.0,0.0,0.029999999329447746,1.5,[1.0,1.0,1.0,1.0],[0.0,0.0,0.0],0.0,0.5,[1.0,1.0,1.0,1.0],[1.0,1.0,1.0,1.0],0.0,0.0,1.3300000429153442],"is_active_output":false,"name":"Principled BSDF","outputs":[[0,0,0,0]],"type":"BSDF_PRINCIPLED_BL"},{"inputs":[[0,0,0,0],[0,0,0,0],[0.0,0.0,0.0],0.0],"is_active_output":true,"name":"Material Output","outputs":[],"type":"OUTPUT_MATERIAL_BL"}]}}},"name":"Prism_Base"},{"alphaMode":"OPAQUE","name":"Prism_IOS","pbrMetallicRoughness":{"baseColorFactor":[0.8001489639282227,0.0,0.0034783165901899338,1.0],"metallicFactor":0.0,"roughnessFactor":0.5}},{"alphaMode":"OPAQUE","extensions":{"S8S_v3d_materials":{"gtaoVisible":true,"materialIndex":0,"nodeGraph":{"edges":[{"fromNode":0,"fromOutput":0,"toInput":0,"toNode":1}],"nodes":[{"inputs":[[0.0020603949669748545,0.0,0.8001724481582642,1.0],0.0,0.5,1.5,1.0,[0.0,0.0,0.0],0.0,[1.0,0.20000000298023224,0.10000000149011612],0.05000000074505806,1.399999976158142,0.0,0.5,[1.0,1.0,1.0,1.0],0.0,0.0,[0.0,0.0,0.0],0.0,0.0,0.029999999329447746,1.5,[1.0,1.0,1.0,1.0],[0.0,0.0,0.0],0.0,0.5,[1.0,1.0,1.0,1.0],[1.0,1.0,1.0,1.0],0.0,0.0,1.3300000429153442],"is_active_output":false,"name":"Principled BSDF","outputs":[[0,0,0,0]],"type":"BSDF_PRINCIPLED_BL"},{"inputs":[[0,0,0,0],[0,0,0,0],[0.0,0.0,0.0],0.0],"is_active_output":true,"name":"Material Output","outputs":[],"type":"OUTPUT_MATERIAL_BL"}]}}},"name":"Prism_Lateral Face"},{"alphaMode":"BLEND","extensions":{"S8S_v3d_materials":{"gtaoVisible":true,"materialIndex":0,"nodeGraph":{"edges":[{"fromNode":1,"fromOutput":0,"toInput":0,"toNode":0},{"fromNode":1,"fromOutput":0,"toInput":1,"toNode":3},{"fromNode":3,"fromOutput":0,"toInput":0,"toNode":2},{"fromNode":4,"fromOutput":1,"toInput":0,"toNode":3},{"fromNode":5,"fromOutput":0,"toInput":2,"toNode":3}],"nodes":[{"inputs":[[0,0,0,0],[0,0,0,0],[0.0,0.0,0.0],0.0],"is_active_output":true,"name":"Material Output","outputs":[],"type":"OUTPUT_MATERIAL_BL"},{"inputs":[[1.0,1.0,1.0,1.0]],"is_active_output":false,"name":"Transparent BSDF","outputs":[[0,0,0,0]],"type":"BSDF_TRANSPARENT_BL"},{"inputs":[[0,0,0,0],[0,0,0,0],[0.0,0.0,0.0],0.0],"is_active_output":false,"name":"Material Output.001","outputs":[],"type":"OUTPUT_MATERIAL_BL"},{"inputs":[0.5,[0,0,0,0],[0,0,0,0]],"is_active_output":false,"name":"Mix Shader","outputs":[[0,0,0,0]],"type":"MIX_SHADER_BL"},{"inputs":[],"is_active_output":false,"name":"Light Path","outputs":[0.0,0.0,0.0,0.0,0.0,0.0,0.0,0.0,0.0,0.0,0.0,0.0,0.0],"type":"LIGHT_PATH_BL"},{"inputs":[[1.0,1.0,1.0,1.0]],"is_active_output":false,"name":"Transparent BSDF.001","outputs":[[0,0,0,0]],"type":"BSDF_TRANSPARENT_BL"}]}}},"name":"Transparent"},{"alphaMode":"OPAQUE","extensions":{"S8S_v3d_materials":{"gtaoVisible":true,"materialIndex":0,"nodeGraph":{"edges":[{"fromNode":0,"fromOutput":0,"toInput":0,"toNode":1},{"fromNode":4,"fromOutput":0,"toInput":6,"toNode":2},{"fromNode":3,"fromOutput":0,"toInput":0,"toNode":2},{"fromNode":2,"fromOutput":2,"toInput":0,"toNode":0}],"nodes":[{"inputs":[[0.05087608844041824,0.05087608844041824,0.05087608844041824,1.0],1.0],"is_active_output":false,"name":"Background","outputs":[[0,0,0,0]],"type":"BACKGROUND_BL"},{"inputs":[[0,0,0,0],[0,0,0,0]],"is_active_output":true,"name":"World Output","outputs":[],"type":"OUTPUT_WORLD_BL"},{"blendType":"MIX","clampFactor":true,"clampResult":false,"dataType":"RGBA","factorMode":"UNIFORM","inputs":[0.5,[0.5,0.5,0.5],0.0,0.0,[0.0,0.0,0.0],[0.0,0.0,0.0],[0.5,0.5,0.5,1.0],[0.05126946419477463,0.05126946419477463,0.05126946419477463,1.0],0,0],"is_active_output":false,"name":"Mix","outputs":[0.0,[0.0,0.0,0.0],[0.0,0.0,0.0,0.0],0],"type":"MIX_BL"},{"inputs":[],"is_active_output":false,"name":"Light Path","outputs":[0.0,0.0,0.0,0.0,0.0,0.0,0.0,0.0,0.0,0.0,0.0,0.0,0.0],"type":"LIGHT_PATH_BL"},{"inputs":[[0.0,0.0,0.0]],"is_active_output":false,"name":"Environment Texture","outputs":[[0.0,0.0,0.0,0.0]],"projection":"EQUIRECTANGULAR","texture":0,"type":"TEX_ENVIRONMENT_BL"}]}}},"name":"Verge3D_Environment_World"}],"meshes":[{"extensions":{"S8S_v3d_mesh":{"colorLayers":{},"uvLayers":{"UVMap":"TEXCOORD_0"}}},"name":"Circle.010","primitives":[{"attributes":{"NORMAL":2,"POSITION":1,"TEXCOORD_0":3},"indices":0,"material":1,"mode":4}]},{"extensions":{"S8S_v3d_mesh":{"colorLayers":{},"uvLayers":{"UVMap":"TEXCOORD_0"}}},"name":"Cube.002","primitives":[{"attributes":{"NORMAL":6,"POSITION":5,"TEXCOORD_0":7},"indices":4,"material":4,"mode":4}]},{"extensions":{"S8S_v3d_mesh":{"colorLayers":{},"uvLayers":{"UVMap":"TEXCOORD_0"}}},"name":"Cube.005","primitives":[{"attributes":{"NORMAL":10,"POSITION":9,"TEXCOORD_0":11},"indices":8,"material":2,"mode":4}]},{"extensions":{"S8S_v3d_mesh":{"colorLayers":{},"uvLayers":{}}},"name":"Plane.002","primitives":[{"attributes":{"NORMAL":14,"POSITION":13,"TEXCOORD_0":15},"indices":12,"material":3,"mode":4}]},{"extensions":{"S8S_v3d_mesh":{"colorLayers":{},"uvLayers":{"UVMap":"TEXCOORD_0"}}},"name":"Plane.006","primitives":[{"attributes":{"NORMAL":18,"POSITION":17,"TEXCOORD_0":19},"indices":16,"material":5,"mode":4}]},{"extensions":{"S8S_v3d_mesh":{"colorLayers":{},"uvLayers":{"UVMap":"TEXCOORD_0"}}},"name":"Prism.002","primitives":[{"attributes":{"NORMAL":22,"POSITION":21,"TEXCOORD_0":23},"indices":20,"material":0,"mode":4}]}],"nodes":[{"extensions":{"S8S_v3d_node":{"frustumCulling":true,"groupNames":["Prism"],"hidden":false,"hidpiCompositing":false,"objectColor":[1.0,1.0,1.0,1.0],"objectIndex":0,"renderOrder":0,"useCastShadows":true,"useShadows":true}},"mesh":1,"name":"Lateral Face","rotation":[0.0,0.7071067690849304,-0.0,0.7071067690849304],"translation":[0.0,-0.25,-0.0]},{"camera":0,"children":[6,4],"extensions":{"S8S_v3d_node":{"frustumCulling":true,"groupNames":["AR"],"hidden":false,"hidpiCompositing":false,"objectColor":[0.0,0.0,0.0,0.0],"objectIndex":0,"renderOrder":0,"useCastShadows":true}},"name":"Camera","rotation":[-0.10753856599330902,0.38670721650123596,0.04545988515019417,0.9147821664810181],"scale":[1.0,0.9999998807907104,0.9999998807907104],"translation":[5.5836076736450195,2.006258726119995,5.424018859863281]},{"children":[9],"extensions":{"S8S_v3d_node":{"frustumCulling":false,"groupNames":["Indicator"],"hidden":false,"hidpiCompositing":false,"objectColor":[1.0,1.0,1.0,1.0],"objectIndex":0,"renderOrder":0,"useCastShadows":false,"useShadows":false}},"mesh":4,"name":"indicator_invis_plane"},{"extensions":{"S8S_v3d_node":{"frustumCulling":true,"groupNames":[],"hidden":false,"hidpiCompositing":false,"objectColor":[1.0,1.0,1.0,1.0],"objectIndex":0,"renderOrder":0,"useCastShadows":true,"useShadows":true}},"mesh":3,"name":"Plane","scale":[0.04999999701976776,0.3182671070098877,0.04999999701976776],"translation":[5.740818023681641,2.006258726119995,5.561577796936035]},{"children":[3],"name":"v3d_Proxy_Node_0_Plane","rotation":[0.10753855854272842,-0.38670724630355835,-0.04545991122722626,0.9147821664810181],"scale":[0.9999999403953552,0.9999999403953552,1.0],"translation":[4.973651357431663e-07,-0.14630195498466492,-8.037431716918945]},{"extensions":{"S8S_v3d_node":{"frustumCulling":true,"groupNames":["AR"],"hidden":false,"hidpiCompositing":false,"objectColor":[1.0,1.0,1.0,1.0],"objectIndex":0,"renderOrder":0,"useCastShadows":true}},"name":"Camera center","rotation":[0.4700469672679901,0.33485209941864014,-0.19870364665985107,0.7921153903007507],"translation":[1.2293521165847778,1.69559907913208,1.1942156553268433]},{"children":[5],"name":"v3d_Proxy_Node_0_Camera center","rotation":[0.2277367264032364,-0.3772808909416199,-0.09627148509025574,0.8924835920333862],"scale":[1.0,0.9999999403953552,0.9999999403953552],"translation":[2.837742840711144e-07,-0.6670794486999512,-6.883180618286133]},{"extensions":{"S8S_v3d_node":{"frustumCulling":true,"groupNames":["Prism"],"hidden":false,"hidpiCompositing":false,"objectColor":[1.0,1.0,1.0,1.0],"objectIndex":0,"renderOrder":0,"useCastShadows":true,"useShadows":true}},"mesh":2,"name":"Base","rotation":[0.0,0.7071067690849304,-0.0,0.7071067690849304],"translation":[0.0,-0.25,-0.0]},{"extensions":{"S8S_v3d_node":{"frustumCulling":true,"groupNames":["Prism"],"hidden":false,"hidpiCompositing":false,"objectColor":[1.0,1.0,1.0,1.0],"objectIndex":0,"renderOrder":0,"useCastShadows":true,"useShadows":true}},"mesh":5,"name":"Vertex","rotation":[0.0,0.7071067690849304,-0.0,0.7071067690849304],"translation":[0.0,-0.25,-0.0]},{"extensions":{"S8S_v3d_node":{"frustumCulling":false,"groupNames":["Indicator"],"hidden":false,"hidpiCompositing":false,"objectColor":[1.0,1.0,1.0,1.0],"objectIndex":0,"renderOrder":-1,"useCastShadows":false,"useShadows":false}},"mesh":0,"name":"indicator_mesh"},{"extensions":{"S8S_v3d_lights":{"light":0},"S8S_v3d_node":{"frustumCulling":true,"groupNames":["AR"],"hidden":false,"hidpiCompositing":false,"objectColor":[0.0,0.0,0.0,0.0],"objectIndex":0,"renderOrder":0,"useCastShadows":true}},"name":"Lamp","rotation":[-0.28416627645492554,0.7269423007965088,0.34203392267227173,0.5232754945755005],"scale":[1.0,0.9999998807907104,0.9999998807907104],"translation":[4.076245307922363,5.903861999511719,-1.0054539442062378]}],"samplers":[{}],"scene":0,"scenes":[{"extensions":{"S8S_v3d_scene":{"aaMethod":"AUTO","iblEnvironmentMode":"PMREM","physicallyCorrectLights":true,"pmremMaxTileSize":256,"shadowMap":{"esmDistanceScale":1.0,"renderReverseSided":false,"renderSingleSided":true,"type":"PCFPOISSON"},"worldMaterial":6}},"extras":{"animFrameRate":24,"coordSystem":"Z_UP_RIGHT"},"name":"Scene","nodes":[10,1,0,8,7,2]}],"textures":[{"extensions":{"S8S_v3d_texture":{"colorSpace":"linear rec.709","source":0}},"name":"environment.hdr","sampler":0}]}
